<svg class="site-title__logo" version="1.1" xmlns="http://www.w3.org/2000/svg" xmlns:xlink="http://www.w3.org/1999/xlink" x="0px" y="0px"
     viewBox="0 0 212 50" enable-background="new 0 0 212 50" xml:space="preserve" aria-labelledby="title" role="img">

    <title id="title">SJParsons</title>

    <path d="M1,35.4l1.7-2.4c2.5,2.4,5.2,3.8,9.1,3.8c5.5,0,7.7-2.6,7.7-7.1c0-5-2.6-6.5-7.6-8.5
        c-5.5-2.3-8.9-4.4-8.9-10.5c0-5.9,3.9-9.1,9.8-9.1c4,0,6.4,0.9,8.6,2.5L20,6.7c-2.1-1.5-4.2-2.3-7-2.3c-3.8,0-6.6,1.9-6.6,6.1
        c0,4.4,2.1,5.6,6.8,7.5c6,2.5,9.9,4.7,9.9,11.6c0,5.5-3,10.1-11,10.1C7.4,39.7,3.5,37.8,1,35.4z"/>
    <path d="M26.9,44.1c3.7-2.1,5.2-3.2,5.2-8.9V2h3.5v32.5c0,7.3-1.7,9.4-7.5,11.9L26.9,44.1z"/>
    <path d="M46.1,2h9.3c7.5,0,11.1,3.8,11.1,10.7c0,7.2-3.6,11.1-10.5,11.1h-6.5v15.3h-3.4V2z M55.6,21
        c4.9,0,7.2-2.3,7.2-8.1c0-5.7-2.2-7.9-7.7-7.9h-5.7v16H55.6z"/>
    <path d="M86.9,20.7c0-3.2-0.8-5.1-4.3-5.1c-2.9,0-5.3,1.1-7.7,2.6l-1.3-2.4c2.5-1.7,5.3-3,9.3-3
        c4.8,0,7.2,2.3,7.2,7.5v18.9h-2.3L87,36c-1.4,1.7-3.8,3.7-7.2,3.7c-4.8,0-7.6-2.8-7.6-7.8c0-5.6,3.3-8.3,11.3-8.3h3.3V20.7z
         M86.9,26.1h-3c-6.5,0-8.2,1.7-8.2,5.9c0,3.6,1.5,5,4.5,5s5.3-1.9,6.6-3.6V26.1z"/>
    <path d="M99.5,13.3h2.3l0.8,4.4c2.2-2.6,4.8-4.8,7.8-4.8c0.3,0,0.8,0.1,0.8,0.1l-0.3,3.5c-0.2-0.1-0.6-0.2-1.1-0.2
        c-2.6,0-4.6,1.4-7,3.8v19h-3.2V13.3z"/>
    <path d="M115,36.9l1.4-2.3c2,1.5,4.2,2.4,7,2.4c3.8,0,5.4-1.7,5.4-4.5c0-3.1-1.4-4-5.8-5.5c-3.8-1.2-6.7-3-6.7-7.6
        c0-3.6,2.5-6.6,7.6-6.6c3.1,0,5.2,0.8,7,1.8l-1.2,2.5c-1.9-1-3.4-1.6-5.8-1.6c-2.9,0-4.6,1.2-4.6,3.8c0,2.8,1.3,3.6,4.9,4.8
        c4.3,1.4,7.7,2.9,7.7,8.2c0,5-3.2,7.4-8.6,7.4C119.9,39.7,116.9,38.4,115,36.9z"/>
    <path d="M138.1,26.3c0-9.6,4.2-13.5,10.2-13.5c5.9,0,10.4,3.8,10.4,13.4c0,9.6-4.2,13.4-10.3,13.4
        C142.4,39.7,138.1,35.8,138.1,26.3z M155.3,26.3c0-8.2-2.4-11-6.9-11c-4.5,0-6.9,2.6-6.9,10.8c0,8.2,2.4,10.9,6.9,10.9
        S155.3,34.4,155.3,26.3z"/>
    <path d="M166.7,13.3h2.3l0.8,3.7c2.5-2.5,5.2-4.3,8.4-4.3c3.7,0,6.4,2.2,6.4,6.6v19.7h-3.2V20.3
        c0-3.5-1.2-4.6-3.9-4.6c-2.6,0-5.1,1.7-7.5,3.7v19.8h-3.2V13.3z"/>
    <path d="M191.2,36.9l1.4-2.3c2,1.5,4.2,2.4,7,2.4c3.8,0,5.4-1.7,5.4-4.5c0-3.1-1.4-4-5.8-5.5
        c-3.8-1.2-6.7-3-6.7-7.6c0-3.6,2.5-6.6,7.6-6.6c3.1,0,5.2,0.8,7,1.8l-1.2,2.5c-1.9-1-3.4-1.6-5.8-1.6c-2.9,0-4.6,1.2-4.6,3.8
        c0,2.8,1.3,3.6,4.9,4.8c4.3,1.4,7.7,2.9,7.7,8.2c0,5-3.2,7.4-8.6,7.4C196,39.7,193.1,38.4,191.2,36.9z"/>
</svg>