<svg class="site-title__logo" version="1.1"  xmlns="http://www.w3.org/2000/svg" xmlns:xlink="http://www.w3.org/1999/xlink" x="0px" y="0px"
     viewBox="0 0 42 29" enable-background="new 0 0 42 29" xml:space="preserve" aria-labelledby="title" role="img">

    <title id="title">SJP</title>

<path d="M0.3,21.7l1.1-1.5c1.6,1.5,3.3,2.4,5.7,2.4c3.4,0,4.8-1.7,4.8-4.5c0-3.2-1.7-4.1-4.8-5.4
        C3.7,11.4,1.5,10,1.5,6.2c0-3.7,2.5-5.7,6.2-5.7c2.5,0,4,0.6,5.4,1.6l-0.9,1.7c-1.3-0.9-2.6-1.4-4.4-1.4c-2.4,0-4.1,1.2-4.1,3.8
        c0,2.8,1.3,3.5,4.2,4.7c3.8,1.6,6.2,3,6.2,7.3c0,3.4-1.9,6.4-6.9,6.4C4.3,24.4,1.9,23.3,0.3,21.7z"/>
<path d="M16.6,27.2c2.3-1.3,3.3-2,3.3-5.6V0.7H22v20.4c0,4.6-1.1,5.9-4.7,7.5L16.6,27.2z"/>
<path d="M28.7,0.7h5.8c4.7,0,7,2.4,7,6.7c0,4.6-2.3,7-6.6,7h-4.1v9.6h-2.1V0.7z M34.7,12.7c3.1,0,4.6-1.5,4.6-5.1
        c0-3.6-1.4-5-4.8-5h-3.6v10.1H34.7z"/>
</svg>